<svg width="163" height="22" viewBox="0 0 163 22" fill="none" xmlns="http://www.w3.org/2000/svg">
<path d="M97.3546 21.7821C97.137 21.7821 96.9283 21.6958 96.7744 21.5422C96.6205 21.3886 96.534 21.1803 96.534 20.9631V1.24292C96.5338 1.06054 96.5947 0.8833 96.7068 0.739314C96.819 0.595327 96.9761 0.492827 97.1532 0.44806C97.3303 0.403293 97.5174 0.418821 97.6847 0.492182C97.852 0.565543 97.9899 0.69254 98.0767 0.853043L104.999 13.611L111.272 2.25531C111.323 2.15913 111.392 2.07402 111.476 2.00496C111.561 1.93589 111.658 1.88425 111.762 1.85304C111.866 1.82183 111.976 1.81168 112.084 1.82319C112.193 1.8347 112.298 1.86762 112.393 1.92005C112.489 1.97248 112.573 2.04336 112.64 2.12856C112.708 2.21375 112.758 2.31156 112.788 2.41626C112.817 2.52097 112.825 2.63049 112.812 2.73842C112.798 2.84635 112.764 2.95054 112.709 3.0449L105.711 15.7341C105.64 15.862 105.536 15.9686 105.41 16.0429C105.283 16.1172 105.139 16.1565 104.993 16.1567C104.845 16.1559 104.701 16.1156 104.575 16.0401C104.448 15.9646 104.344 15.8567 104.274 15.7275L98.1752 4.47665V20.9762C98.1718 21.1911 98.0838 21.3961 97.9303 21.5469C97.7767 21.6977 97.57 21.7822 97.3546 21.7821Z" fill="#06A8B2"/>
<path d="M116.044 21.7821C115.937 21.7839 115.829 21.7644 115.729 21.7248C115.629 21.6853 115.538 21.6264 115.46 21.5515C115.383 21.4767 115.321 21.3874 115.278 21.2886C115.235 21.1899 115.212 21.0837 115.211 20.9762V4.44061L107.225 19.0104C107.12 19.2011 106.944 19.3426 106.735 19.4037C106.526 19.4649 106.301 19.4407 106.11 19.3364C105.919 19.2321 105.777 19.0563 105.716 18.8477C105.655 18.6391 105.679 18.4148 105.784 18.2241L115.325 0.859601C115.416 0.707473 115.553 0.588511 115.716 0.520474C115.879 0.452437 116.06 0.438974 116.232 0.482095C116.404 0.525216 116.557 0.622608 116.669 0.759732C116.78 0.896856 116.845 1.06636 116.852 1.24293V20.9762C116.848 21.1889 116.762 21.3919 116.612 21.5423C116.461 21.6928 116.257 21.7788 116.044 21.7821Z" fill="#06A8B2"/>
<path d="M100.112 21.7822C99.8941 21.7822 99.6854 21.6959 99.5315 21.5423C99.3776 21.3887 99.2912 21.1803 99.2912 20.9631V11.7304C99.2912 11.5132 99.3776 11.3049 99.5315 11.1512C99.6854 10.9976 99.8941 10.9113 100.112 10.9113C100.329 10.9113 100.538 10.9976 100.692 11.1512C100.846 11.3049 100.932 11.5132 100.932 11.7304V20.9762C100.929 21.1911 100.841 21.3961 100.687 21.5469C100.534 21.6977 100.327 21.7822 100.112 21.7822Z" fill="#06A8B2"/>
<path d="M113.386 20.2095C113.168 20.2095 112.959 20.1232 112.805 19.9696C112.652 19.816 112.565 19.6077 112.565 19.3904V11.7304C112.565 11.5132 112.652 11.3049 112.805 11.1512C112.959 10.9976 113.168 10.9113 113.386 10.9113C113.603 10.9113 113.812 10.9976 113.966 11.1512C114.12 11.3049 114.206 11.5132 114.206 11.7304V19.3904C114.206 19.6077 114.12 19.816 113.966 19.9696C113.812 20.1232 113.603 20.2095 113.386 20.2095Z" fill="#06A8B2"/>
<path d="M105.107 10.4101C104.958 10.41 104.81 10.3691 104.682 10.2918C104.554 10.2144 104.449 10.1035 104.379 9.97105L100.844 3.28409C100.793 3.189 100.762 3.08493 100.752 2.97782C100.742 2.87071 100.753 2.76265 100.785 2.65982C100.816 2.55699 100.868 2.4614 100.937 2.3785C101.005 2.29561 101.09 2.22703 101.185 2.17669C101.28 2.12635 101.385 2.09523 101.492 2.08511C101.599 2.07499 101.707 2.08607 101.81 2.11771C101.914 2.14935 102.009 2.20094 102.092 2.26952C102.175 2.3381 102.244 2.42234 102.295 2.51743L105.833 9.19783C105.884 9.29179 105.916 9.39494 105.928 9.50136C105.939 9.60778 105.929 9.71538 105.899 9.81797C105.868 9.92056 105.818 10.0161 105.75 10.0992C105.682 10.1822 105.599 10.2512 105.505 10.302C105.384 10.3718 105.247 10.409 105.107 10.4101Z" fill="#06A8B2"/>
<path d="M134.196 10.646H126.121C125.904 10.646 125.695 10.5597 125.541 10.4061C125.387 10.2525 125.301 10.0441 125.301 9.82688V1.24294C125.301 1.0257 125.387 0.817368 125.541 0.663761C125.695 0.510154 125.904 0.423859 126.121 0.423859C126.339 0.423859 126.548 0.510154 126.701 0.663761C126.855 0.817368 126.942 1.0257 126.942 1.24294V9.0078H134.196C134.413 9.0078 134.622 9.0941 134.776 9.24771C134.93 9.40131 135.016 9.60965 135.016 9.82688C135.016 10.0441 134.93 10.2525 134.776 10.4061C134.622 10.5597 134.413 10.646 134.196 10.646Z" fill="#06A8B2"/>
<path d="M136.72 21.7822H126.121C125.904 21.7822 125.695 21.6959 125.541 21.5423C125.387 21.3887 125.301 21.1803 125.301 20.9631V12.5135C125.301 12.2962 125.387 12.0879 125.541 11.9343C125.695 11.7807 125.904 11.6944 126.121 11.6944H134.196C134.413 11.6944 134.622 11.7807 134.776 11.9343C134.93 12.0879 135.016 12.2962 135.016 12.5135C135.016 12.7307 134.93 12.939 134.776 13.0927C134.622 13.2463 134.413 13.3326 134.196 13.3326H126.942V20.144H136.72C136.937 20.144 137.146 20.2303 137.3 20.3839C137.454 20.5375 137.54 20.7459 137.54 20.9631C137.54 21.1803 137.454 21.3887 137.3 21.5423C137.146 21.6959 136.937 21.7822 136.72 21.7822Z" fill="#06A8B2"/>
<path d="M128.54 7.96595C128.432 7.96639 128.325 7.9455 128.226 7.90449C128.126 7.86348 128.035 7.80316 127.959 7.72702C127.883 7.65087 127.822 7.5604 127.781 7.46083C127.74 7.36126 127.719 7.25456 127.72 7.14687V3.78865C127.72 3.57142 127.806 3.36308 127.96 3.20948C128.114 3.05587 128.323 2.96957 128.54 2.96957H136.72C136.937 2.96957 137.146 3.05587 137.3 3.20948C137.454 3.36308 137.54 3.57142 137.54 3.78865C137.54 4.00589 137.454 4.21422 137.3 4.36783C137.146 4.52144 136.937 4.60773 136.72 4.60773H129.361V7.14687C129.361 7.25456 129.34 7.36126 129.299 7.46083C129.258 7.5604 129.198 7.65087 129.121 7.72702C129.045 7.80316 128.955 7.86348 128.855 7.90449C128.755 7.9455 128.648 7.96639 128.54 7.96595Z" fill="#06A8B2"/>
<path d="M136.72 2.06202H128.54C128.323 2.06202 128.114 1.97572 127.96 1.82211C127.806 1.66851 127.72 1.46017 127.72 1.24294C127.72 1.0257 127.806 0.817368 127.96 0.663761C128.114 0.510154 128.323 0.423859 128.54 0.423859H136.72C136.937 0.423859 137.146 0.510154 137.3 0.663761C137.454 0.817368 137.54 1.0257 137.54 1.24294C137.54 1.46017 137.454 1.66851 137.3 1.82211C137.146 1.97572 136.937 2.06202 136.72 2.06202Z" fill="#06A8B2"/>
<path d="M113.386 21.7822C113.839 21.7822 114.206 21.4155 114.206 20.9631C114.206 20.5107 113.839 20.144 113.386 20.144C112.932 20.144 112.565 20.5107 112.565 20.9631C112.565 21.4155 112.932 21.7822 113.386 21.7822Z" fill="#06A8B2"/>
<path d="M136.815 19.3643C137.268 19.3643 137.636 18.9975 137.636 18.5452C137.636 18.0928 137.268 17.7261 136.815 17.7261C136.362 17.7261 135.994 18.0928 135.994 18.5452C135.994 18.9975 136.362 19.3643 136.815 19.3643Z" fill="#06A8B2"/>
<path d="M152.652 19.3643C153.106 19.3643 153.473 18.9975 153.473 18.5452C153.473 18.0928 153.106 17.7261 152.652 17.7261C152.199 17.7261 151.832 18.0928 151.832 18.5452C151.832 18.9975 152.199 19.3643 152.652 19.3643Z" fill="#06A8B2"/>
<path d="M18.0529 0.296082V21.8444H13.1294V13.3063H4.92353V21.8444H0V0.296082H4.92353V8.40169H13.1097V0.296082H18.0529Z" fill="white"/>
<path d="M37.9079 18.0079H29.8497L28.5565 21.8117H23.052L30.8541 0.263336H36.9429L44.7549 21.8117H39.1749L37.9079 18.0079ZM36.5523 13.9551L33.8772 6.06569L31.2513 13.9551H36.5523Z" fill="white"/>
<path d="M84.6093 21.8444L78.0183 12.3267V21.8444H72.7665V0.296082H78.0183V9.41734L84.2121 0.296082H90.7276L83.1782 10.623L91.0558 21.8444H84.6093Z" fill="white"/>
<path d="M61.5178 16.5335C60.7026 17.0108 59.7713 17.2546 58.8263 17.2379C58.0856 17.2646 57.3483 17.1271 56.6672 16.8354C55.9861 16.5436 55.3783 16.1049 54.8875 15.5506C53.8831 14.4279 53.3809 12.9241 53.3809 11.0391C53.3809 9.15414 53.8831 7.65031 54.8875 6.52763C55.3782 5.97295 55.9859 5.53367 56.6669 5.24136C57.348 4.94905 58.0854 4.81097 58.8263 4.83705C59.7716 4.82155 60.7029 5.06641 61.5178 5.54473C62.1713 5.93662 62.7154 6.48648 63.0999 7.14357L67.5278 4.15885C66.9543 3.36189 66.26 2.65889 65.4698 2.07511C63.6448 0.725273 61.4511 0.0503518 58.8887 0.0503518C56.9276 0.017736 54.9923 0.498977 53.2758 1.44606C51.646 2.3556 50.3077 3.70739 49.4158 5.34488C48.4739 7.09337 47.998 9.05419 48.0339 11.0391C47.9967 13.019 48.4727 14.9748 49.4158 16.717C50.3111 18.3477 51.649 19.6933 53.2758 20.5994C54.9915 21.5491 56.9272 22.0315 58.8887 21.9984C61.4533 21.9984 63.647 21.3278 65.4698 19.9867C66.2636 19.4037 66.9604 18.6994 67.5344 17.8997L63.1689 14.82C62.7789 15.5261 62.2095 16.1171 61.5178 16.5335Z" fill="white"/>
<path d="M135.285 19.3675H128.54C128.323 19.3675 128.114 19.2812 127.96 19.1276C127.806 18.974 127.72 18.7657 127.72 18.5484V14.6365C127.72 14.4193 127.806 14.211 127.96 14.0573C128.114 13.9037 128.323 13.8174 128.54 13.8174C128.758 13.8174 128.967 13.9037 129.12 14.0573C129.274 14.211 129.361 14.4193 129.361 14.6365V17.7294H135.285C135.503 17.7294 135.712 17.8157 135.866 17.9693C136.02 18.1229 136.106 18.3312 136.106 18.5484C136.106 18.7657 136.02 18.974 135.866 19.1276C135.712 19.2812 135.503 19.3675 135.285 19.3675Z" fill="#06A8B2"/>
<path d="M147.489 21.7822C147.272 21.7822 147.063 21.6959 146.909 21.5423C146.755 21.3887 146.669 21.1803 146.669 20.9631V3.63466C146.669 3.41743 146.755 3.20909 146.909 3.05548C147.063 2.90188 147.272 2.81558 147.489 2.81558H153.319C156.716 2.81558 159.929 6.67508 159.929 10.7541C159.929 17.2641 155.613 18.7516 154.287 19.0497C154.18 19.0801 154.067 19.0883 153.957 19.0739C153.846 19.0594 153.74 19.0227 153.644 18.9658C153.548 18.909 153.465 18.8332 153.399 18.7432C153.334 18.6531 153.287 18.5507 153.263 18.4422C153.238 18.3336 153.236 18.2212 153.256 18.1118C153.277 18.0024 153.319 17.8982 153.381 17.8058C153.444 17.7133 153.524 17.6345 153.617 17.574C153.711 17.5136 153.816 17.4728 153.926 17.4542C155.239 17.156 158.288 15.9077 158.288 10.7541C158.288 7.26482 155.57 4.45374 153.319 4.45374H148.31V20.9762C148.306 21.1912 148.218 21.3961 148.065 21.5469C147.911 21.6977 147.705 21.7822 147.489 21.7822Z" fill="#06A8B2"/>
<path d="M154.389 21.7822H150.171C149.955 21.7831 149.747 21.6989 149.593 21.5481C149.439 21.3972 149.35 21.1917 149.347 20.9762V6.00671C149.347 5.78947 149.433 5.58114 149.587 5.42753C149.741 5.27392 149.95 5.18763 150.168 5.18763C150.385 5.18763 150.594 5.27392 150.748 5.42753C150.902 5.58114 150.988 5.78947 150.988 6.00671V20.144H154.385C155.86 20.0664 157.258 19.463 158.324 18.4436C160.077 16.8054 160.967 14.2794 160.967 10.9081C160.996 7.87421 160.136 5.54802 158.41 3.98522C155.291 1.16759 150.309 1.6918 150.256 1.6918C150.148 1.70363 150.039 1.69416 149.935 1.66393C149.831 1.6337 149.734 1.5833 149.65 1.51561C149.479 1.3789 149.369 1.18005 149.345 0.962819C149.321 0.745586 149.385 0.527758 149.522 0.357254C149.659 0.18675 149.858 0.0775374 150.076 0.0536417C150.309 0.0274312 155.83 -0.545924 159.503 2.76643C161.597 4.65686 162.644 7.39914 162.608 10.9212C162.608 15.6849 160.888 18.2929 159.444 19.6362C158.076 20.941 156.279 21.7039 154.389 21.7822Z" fill="#06A8B2"/>
</svg>
